<?xml version="1.0" standalone="no"?>
<!DOCTYPE svg PUBLIC "-//W3C//DTD SVG 20010904//EN"
 "http://www.w3.org/TR/2001/REC-SVG-20010904/DTD/svg10.dtd">
<svg version="1.0" xmlns="http://www.w3.org/2000/svg"
 width="860.000000pt" height="900.000000pt" viewBox="0 0 860.000000 900.000000"
 preserveAspectRatio="xMidYMid meet">
<metadata>
Created by potrace 1.16, written by Peter Selinger 2001-2019
</metadata>
<g transform="translate(0.000000,900.000000) scale(0.100000,-0.100000)"
fill="#000000" stroke="none">
<path d="M1003 8586 c-6 -7 -34 -16 -63 -20 -179 -24 -384 -159 -496 -327 -50
-75 -98 -197 -109 -274 -4 -28 -13 -60 -21 -72 -17 -27 -19 -174 -3 -190 6 -6
19 -50 30 -99 21 -100 82 -230 142 -308 22 -28 631 -643 1353 -1366 723 -723
1314 -1323 1314 -1332 0 -9 -580 -596 -1289 -1305 -709 -708 -1311 -1314
-1339 -1346 -95 -110 -172 -269 -188 -387 -4 -28 -13 -57 -20 -65 -19 -19 -19
-168 0 -198 8 -12 18 -44 22 -72 25 -176 164 -381 334 -490 77 -50 177 -91
243 -100 26 -4 54 -14 62 -21 16 -17 245 -20 245 -4 0 5 12 12 28 16 145 32
172 42 287 107 61 35 235 204 1410 1378 737 737 1347 1339 1355 1339 8 0 613
-598 1345 -1328 836 -835 1350 -1342 1385 -1364 111 -72 254 -128 323 -128 10
0 20 -7 23 -15 9 -22 236 -22 254 0 7 8 20 15 29 15 9 0 43 7 75 15 205 53
393 215 485 417 22 49 51 150 51 179 0 9 7 22 15 29 22 18 22 232 0 250 -8 7
-15 23 -15 35 0 61 -68 228 -133 325 -16 25 -628 644 -1358 1375 -731 732
-1329 1337 -1329 1345 0 8 602 618 1338 1355 1158 1159 1344 1349 1379 1410
50 88 89 185 98 248 4 26 14 54 21 62 20 20 20 238 0 254 -8 6 -17 33 -21 59
-17 111 -99 264 -197 364 -99 102 -274 197 -393 213 -27 4 -60 13 -72 21 -30
19 -179 19 -198 0 -8 -7 -37 -16 -65 -20 -115 -15 -262 -85 -370 -175 -30 -25
-640 -630 -1355 -1343 -715 -714 -1307 -1298 -1315 -1298 -8 0 -602 588 -1320
1306 -718 718 -1331 1325 -1362 1350 -87 68 -213 129 -304 148 -43 9 -92 23
-107 31 -37 19 -187 20 -204 1z"/>
</g>
</svg>
